<?xml version="1.0" encoding="utf-8"?>
<!-- Svg Vector Icons : http://www.onlinewebfonts.com/icon -->
<!DOCTYPE svg PUBLIC "-//W3C//DTD SVG 1.1//EN" "http://www.w3.org/Graphics/SVG/1.1/DTD/svg11.dtd">
<svg version="1.1" xmlns="http://www.w3.org/2000/svg" xmlns:xlink="http://www.w3.org/1999/xlink" x="0px" y="0px" viewBox="0 0 1000 1000" enable-background="new 0 0 1000 1000" xml:space="preserve">
<metadata> Svg Vector Icons : http://www.onlinewebfonts.com/icon </metadata>
<g><g><path d="M502.8,208.5L502.8,208.5c-1.4-0.1-2.8-0.1-4.1-0.1c-0.5,0-0.9,0-1.4,0l0,0C111.4,208.4,10,165.9,10,165.9l29.2,66.5c0,0,6.1,1.2,23.6,3.3v26.3c0,0,28.1,8.9,140.5,15.3v17.5H219l-0.8,36.4H191v13H72.5v55.1h144l-11.5,370c-17.6,3.6-30.9,19.4-30.9,38.2v0.9H82V834h345.7v-25.6H340v-0.9c0-18.8-13.3-34.5-30.8-38.2l-11.7-370h199.8v0.1h205.3L691,769.5c-17.6,3.5-30.9,19.4-30.9,38.2v0.9h-87.6v25.5h345.8v-25.5H826v-0.9c0-18.8-13.3-34.5-30.9-38.2l-11.7-369.9h144.3v-55.2H809.2v-13.1h-27.3l-0.9-36.5h15.8v-17.4C909,270.9,937.2,262,937.2,262v-26.3c17.4-2,23.5-3.3,23.5-3.3l29.3-66.5C990.1,165.9,888.7,208.4,502.8,208.5z M464.6,344.3H323.2v-13h-27.4l-0.8-36.5h15.9v-13.5c49,1.7,83,2.7,153.8,3V344.3L464.6,344.3z M704.3,331.3h-27.3v13.1H535.5v-60c70.7-0.3,104.9-1.3,153.7-3v13.5h16L704.3,331.3z"/></g><g></g><g></g><g></g><g></g><g></g><g></g><g></g><g></g><g></g><g></g><g></g><g></g><g></g><g></g><g></g></g>
</svg>